<?xml version="1.0" encoding="UTF-8"?>
<svg version="1.1" xmlns="http://www.w3.org/2000/svg" width="528" height="560">
<path d="M0 0 C1.890625 1.71875 1.890625 1.71875 4.015625 4.71875 C4.634375 5.37875 5.253125 6.03875 5.890625 6.71875 C8.2321909 6.44926032 10.56480678 6.10101319 12.890625 5.71875 C25.22761568 4.71945661 35.48850361 5.83599102 46.890625 10.71875 C48.25767578 11.27755859 48.25767578 11.27755859 49.65234375 11.84765625 C56.62314423 14.98834658 62.19562714 19.68391418 67.890625 24.71875 C68.52871094 25.24984375 69.16679687 25.7809375 69.82421875 26.328125 C79.54292279 35.03680206 88.0308479 51.34237378 90.546875 64.02734375 C92.7665093 75.03303049 100.05572941 79.26352741 108.82714844 85.28320312 C121.30711154 93.96543018 133.25047421 104.95373999 142.890625 116.71875 C143.62152344 117.56179687 144.35242188 118.40484375 145.10546875 119.2734375 C182.3889316 162.74136102 202.38703334 217.90126628 202.265625 275.03125 C202.26480927 276.48016129 202.26480927 276.48016129 202.26397705 277.95834351 C202.22295291 293.85552694 201.29819863 309.1383068 197.890625 324.71875 C197.56916504 326.19794922 197.56916504 326.19794922 197.24121094 327.70703125 C189.71560579 361.1395595 175.56364442 392.39092851 154.890625 419.71875 C154.42978516 420.32912109 153.96894531 420.93949219 153.49414062 421.56835938 C148.80594032 427.74041025 144.1256971 433.82434063 138.48046875 439.1640625 C136.76170446 440.84481972 135.24622198 442.62591476 133.703125 444.46875 C118.85677469 461.49647196 99.38357021 474.59830506 79.890625 485.71875 C79.25350586 486.08548828 78.61638672 486.45222656 77.95996094 486.83007812 C54.02168644 500.49112179 27.12165623 509.57645371 -0.109375 513.71875 C-1.78954712 513.98147705 -1.78954712 513.98147705 -3.50366211 514.24951172 C-14.81402551 515.85352429 -26.00928843 516.11690746 -37.421875 516.09375 C-38.38681885 516.09353851 -39.3517627 516.09332703 -40.34594727 516.09310913 C-56.24643809 516.05843568 -71.51685834 515.06600501 -87.109375 511.71875 C-88.01961426 511.52619629 -88.92985352 511.33364258 -89.86767578 511.13525391 C-141.72842294 499.83819943 -191.26328902 470.77647868 -224.109375 428.71875 C-224.84027344 427.80246826 -224.84027344 427.80246826 -225.5859375 426.86767578 C-234.00575845 416.30919957 -241.37313223 405.41983297 -248.109375 393.71875 C-248.46837891 393.10918457 -248.82738281 392.49961914 -249.19726562 391.87158203 C-269.59049755 357.08026045 -278.56935923 316.39648086 -278.484375 276.40625 C-278.48383118 275.44030914 -278.48328735 274.47436829 -278.48272705 273.47915649 C-278.44170291 257.58197306 -277.51694863 242.2991932 -274.109375 226.71875 C-273.89506836 225.73261719 -273.68076172 224.74648438 -273.45996094 223.73046875 C-264.19038649 182.55035053 -244.84634427 145.36675159 -216.3984375 114.23046875 C-214.85677271 112.5388468 -213.33092056 110.83269349 -211.8203125 109.11328125 C-207.20911901 103.87616974 -202.47669075 99.16946429 -197.109375 94.71875 C-196.1915625 93.93628906 -195.27375 93.15382813 -194.328125 92.34765625 C-192.82765625 91.07728516 -192.82765625 91.07728516 -191.296875 89.78125 C-190.53201782 89.12866211 -190.53201782 89.12866211 -189.75170898 88.46289062 C-187.31191464 86.41559662 -184.89878158 84.59059928 -182.17578125 82.93359375 C-173.9070347 77.89894779 -171.46705997 71.90330297 -167.99609375 63.2578125 C-162.47920824 49.56406358 -151.89765266 34.86340882 -141.109375 24.71875 C-140.449375 24.71875 -139.789375 24.71875 -139.109375 24.71875 C-139.109375 24.05875 -139.109375 23.39875 -139.109375 22.71875 C-136.12701414 19.94186676 -132.89416694 17.47283529 -129.68701172 14.9609375 C-128.20204299 13.79171421 -126.73511456 12.59968235 -125.26953125 11.40625 C-92.40436646 -14.56128761 -35.01482066 -27.91391298 0 0 Z " fill="#B48043" transform="translate(302.109375,44.28125)"/>
<path d="M0 0 C10.81712718 6.50701461 20.21707062 14.25218747 29.5234375 22.74609375 C31.20252205 24.2742196 32.89580823 25.78685858 34.6015625 27.28515625 C39.8406503 31.89903569 44.54206751 36.63520758 49 42 C49.73605469 42.84820312 50.47210938 43.69640625 51.23046875 44.5703125 C88.49394117 88.05423739 108.49641891 143.17754199 108.375 200.3125 C108.37418427 201.76141129 108.37418427 201.76141129 108.37335205 203.23959351 C108.33232791 219.13677694 107.40757363 234.4195568 104 250 C103.78569336 250.98613281 103.57138672 251.97226562 103.35058594 252.98828125 C97.56248755 278.70192939 87.91725044 303.58024928 74 326 C71.75553987 323.92841308 70.32925293 322.02414889 68.98217773 319.2890625 C68.6142662 318.54978516 68.24635468 317.81050781 67.86729431 317.04882812 C67.47667313 316.24896484 67.08605194 315.44910156 66.68359375 314.625 C66.26763443 313.78646484 65.85167511 312.94792969 65.42311096 312.08398438 C64.08886139 309.39210438 62.76273575 306.69632742 61.4375 304 C59.71031066 300.498372 57.97946366 296.9985724 56.24609375 293.5 C55.81403625 292.62720398 55.38197876 291.75440796 54.93682861 290.85516357 C51.57037204 284.08202636 48.07550692 277.38316569 44.53260803 270.70098877 C40.86340043 263.77288511 37.34916732 256.77784547 33.875 249.75 C30.29809905 242.52668365 26.69311919 235.34466195 22.75 228.3125 C7.01897679 199.01093746 0.5102918 166.96602448 -1 134 C-1.515625 135.19625 -2.03125 136.3925 -2.5625 137.625 C-4.84589987 142.15174008 -7.66055704 145.35418856 -12 148 C-12.64187256 148.17063965 -13.28374512 148.3412793 -13.94506836 148.51708984 C-16.21163852 149.13438378 -18.01229669 149.73933887 -20 151 C-21.44699516 153.87881205 -21.70208323 156.82390207 -22.0625 160 C-26.56832991 188.64271782 -41.96496404 213.89693347 -65.3918457 231.15209961 C-72.97331791 236.57921738 -72.97331791 236.57921738 -76.27757263 237.93345642 C-78.87151384 239.05710797 -80.86652734 240.13605665 -83 242 C-84.28577403 245.59960946 -84.11946483 249.03257695 -83.9921875 252.8203125 C-83.994534 253.87475555 -83.99688049 254.92919861 -83.9992981 256.01559448 C-84.00001419 259.38714068 -83.9405096 262.75414563 -83.875 266.125 C-83.84118629 269.47352316 -83.82037368 272.82144592 -83.81497192 276.1701355 C-83.80831186 278.25062363 -83.78395882 280.33116134 -83.73849487 282.41116333 C-83.60045004 296.79050814 -88.58042735 309.27004896 -98.49609375 319.67578125 C-107.68828988 328.208319 -119.02509863 333.00176854 -131.625 333.4375 C-146.44249379 332.78474697 -158.98639318 326.85367451 -169 316 C-176.86078495 305.74551737 -179.44195196 296.63250729 -179.40625 283.8515625 C-179.42250427 282.15004532 -179.42250427 282.15004532 -179.43908691 280.41415405 C-179.48477159 275.59238609 -179.49650013 270.77067639 -179.51123047 265.94873047 C-179.52686767 262.41614373 -179.55983353 258.88401319 -179.59375 255.3515625 C-179.59072876 254.25784332 -179.58770752 253.16412415 -179.58459473 252.03726196 C-179.59470581 251.02545868 -179.60481689 250.0136554 -179.61523438 248.97119141 C-179.61728882 248.08122467 -179.61934326 247.19125793 -179.62145996 246.27432251 C-180.08139185 243.51098618 -180.82753968 242.71083058 -183 241 C-184.99896372 239.73557835 -187.02320961 238.51079578 -189.0625 237.3125 C-195.12878325 233.67137332 -200.58836752 229.56576453 -206 225 C-206.91845703 224.28263672 -206.91845703 224.28263672 -207.85546875 223.55078125 C-225.26299916 209.64865742 -238.81287892 184.77321729 -241.62109375 162.5703125 C-242.13551758 158.54395675 -242.65714349 154.8473536 -244 151 C-246.452344 149.1729372 -248.47601606 148.56959592 -251.42578125 147.8203125 C-255.95905903 146.37571715 -258.69315226 143.05075121 -261 139 C-263.76989293 132.01557867 -264.52080733 125.40212844 -264.5 117.9375 C-264.52835938 117.00873047 -264.55671875 116.07996094 -264.5859375 115.12304688 C-264.6053009 108.22483459 -262.86286236 103.68650496 -259 98 C-249.85949609 97.51250646 -249.85949609 97.51250646 -246.23828125 99.56640625 C-243.2934037 102.76825392 -243.21682565 104.88838515 -242.875 109.1875 C-241.9976737 117.98944069 -240.37855538 124.82859282 -235 132 C-234.43023437 132.80566406 -233.86046875 133.61132812 -233.2734375 134.44140625 C-227.12466507 141.36141646 -216.67570459 144.8071426 -207.67578125 145.78515625 C-189.11867322 146.86979062 -172.37369482 146.32845122 -156.94140625 134.41015625 C-149.39097727 127.50922654 -145.30266459 117.62171074 -144.83984375 107.49609375 C-144.74092746 105.02318659 -144.67149748 102.54885907 -144.63671875 100.07421875 C-144 97 -144 97 -141.89453125 95.1015625 C-138.4217202 93.77992591 -135.71170102 93.63550419 -132 93.6875 C-130.80375 93.69136719 -129.6075 93.69523437 -128.375 93.69921875 C-125.16084307 93.98566561 -122.89460241 94.62396741 -120 96 C-119.94392578 97.52367187 -119.94392578 97.52367187 -119.88671875 99.078125 C-119.35829206 110.98224267 -118.43947145 122.20012968 -111 132 C-110.12988281 133.23363281 -110.12988281 133.23363281 -109.2421875 134.4921875 C-101.42833266 143.23172549 -88.81215161 145.50615899 -77.70849609 146.12841797 C-61.25868264 146.90958152 -46.40287271 144.80639315 -32.94140625 134.41015625 C-22.93582269 125.26526805 -20.89813672 112.85753616 -20 100 C-15.55000847 98.05818552 -11.29625799 97.29476835 -6.5234375 96.5625 C-3.77199661 96.10827414 -3.77199661 96.10827414 -1 94 C-0.53011472 91.67153578 -0.53011472 91.67153578 -0.58349609 88.92700195 C-0.56692963 87.86862625 -0.55036316 86.81025055 -0.53329468 85.71980286 C-0.53004181 84.57090073 -0.52678894 83.4219986 -0.5234375 82.23828125 C-0.50785797 81.05912643 -0.49227844 79.87997162 -0.47622681 78.66508484 C-0.42855619 74.88089724 -0.40091886 71.09689389 -0.375 67.3125 C-0.33843994 63.54609182 -0.29768014 59.77978625 -0.25234985 56.01347351 C-0.22526883 53.66735298 -0.20385518 51.32115841 -0.18881226 48.97492981 C-0.13684502 43.53553052 0.11789499 38.36439893 1 33 C1.08178503 31.46768811 1.13040357 29.93292853 1.1328125 28.3984375 C1.13474609 27.58407227 1.13667969 26.76970703 1.13867188 25.93066406 C1.1319043 24.66561035 1.1319043 24.66561035 1.125 23.375 C1.12306641 22.50069336 1.12113281 21.62638672 1.11914062 20.72558594 C1.0731531 13.77891419 0.70648709 6.91348076 0 0 Z " fill="#ECB889" transform="translate(396,119)"/>
<path d="M0 0 C0.33 0 0.66 0 1 0 C1.05945801 1.05405029 1.05945801 1.05405029 1.12011719 2.12939453 C3.76098342 47.00223493 17.34057792 82.71408572 37.98455811 122.19952393 C41.04150725 128.05560293 44.00611308 133.95508307 46.9375 139.875 C50.18609337 146.4222579 53.51087148 152.91916121 56.9375 159.375 C60.89945208 166.87256718 64.82652922 174.38738323 68.6875 181.9375 C69.22947021 182.97503418 69.77144043 184.01256836 70.32983398 185.08154297 C70.82298096 186.05365723 71.31612793 187.02577148 71.82421875 188.02734375 C72.49070435 189.32273071 72.49070435 189.32273071 73.1706543 190.64428711 C74.11356931 193.32258766 74.02817622 194.39377286 73 197 C65.57171831 209.70371933 55.96271676 221.24026589 46 232 C45.1234375 232.9796875 44.246875 233.959375 43.34375 234.96875 C27.24456669 252.94921181 7.91591455 267.06777152 -13 279 C-13.63711914 279.36673828 -14.27423828 279.73347656 -14.93066406 280.11132812 C-38.86893856 293.77237179 -65.76896877 302.85770371 -93 307 C-94.12011475 307.17515137 -95.24022949 307.35030273 -96.39428711 307.53076172 C-107.70465051 309.13477429 -118.89991343 309.39815746 -130.3125 309.375 C-131.27744385 309.37478851 -132.2423877 309.37457703 -133.23657227 309.37435913 C-149.13706309 309.33968568 -164.40748334 308.34725501 -180 305 C-180.91023926 304.80744629 -181.82047852 304.61489258 -182.75830078 304.41650391 C-201.33556475 300.36973685 -218.81064591 294.05764452 -236 286 C-237.09441406 285.49984375 -238.18882812 284.9996875 -239.31640625 284.484375 C-244.33322616 282.11512292 -244.33322616 282.11512292 -246 281 C-246.495 279.515 -246.495 279.515 -247 278 C-246.04480469 277.57589844 -245.08960938 277.15179687 -244.10546875 276.71484375 C-215.99159079 264.04698808 -201.00610721 244.76412291 -189 217 C-188.44014404 217.12117187 -187.88028809 217.24234375 -187.3034668 217.3671875 C-184.76548365 217.91463176 -182.22651567 218.4573656 -179.6875 219 C-178.80642578 219.19078125 -177.92535156 219.3815625 -177.01757812 219.578125 C-176.17001953 219.75859375 -175.32246094 219.9390625 -174.44921875 220.125 C-173.27879028 220.37636719 -173.27879028 220.37636719 -172.0847168 220.6328125 C-169.86038092 221.08673147 -169.86038092 221.08673147 -167 221 C-173.93 218.69 -180.86 216.38 -188 214 C-187.4225 211.69 -186.845 209.38 -186.25 207 C-184.46085798 199.57144658 -183.06846239 192.09827437 -181.8125 184.5625 C-181.56258301 183.07266602 -181.56258301 183.07266602 -181.30761719 181.55273438 C-180.30419241 175.38383545 -179.54197651 169.22632859 -179 163 C-177 164 -177 164 -176.17578125 166.15234375 C-175.89089844 167.07144531 -175.60601562 167.99054688 -175.3125 168.9375 C-171.31499453 180.31047681 -163.85201015 189.03339613 -153.25 194.75 C-140.24830336 200.78294653 -128.05914826 201.58511094 -114.4296875 197.3203125 C-101.38199491 192.29739668 -93.34955381 183.50189592 -87.2265625 171.1875 C-84.19848361 163.31835231 -83.7984967 156.0494232 -84.04296875 147.68359375 C-84.06650248 145.51630984 -84.08658081 143.34898614 -84.10351562 141.18164062 C-84.13623152 137.80009591 -84.18793473 134.42416171 -84.2980957 131.04418945 C-84.85734983 112.66087892 -84.85734983 112.66087892 -81.77279663 108.24188232 C-78.3392665 105.1100119 -74.32784773 103.61399872 -70 102 C-67.94611433 100.76459503 -67.94611433 100.76459503 -66.30859375 99.453125 C-65.36113281 98.72609375 -64.41367187 97.9990625 -63.4375 97.25 C-43.51185099 81.68498859 -26.29791304 58.54284371 -22.69726562 32.83886719 C-22.61669922 32.11602539 -22.53613281 31.39318359 -22.453125 30.6484375 C-21.97619044 26.53115089 -21.46669891 22.9021434 -20 19 C-17.09181374 16.73712134 -14.39657322 15.57862367 -10.95703125 14.28515625 C-5.44078607 11.88773925 -3.04414938 7.2781441 -0.625 2 C-0.41875 1.34 -0.2125 0.68 0 0 Z " fill="#DF7689" transform="translate(395,251)"/>
<path d="M0 0 C1.27417912 3.82253735 0.47007471 5.31447683 -0.75 9.125 C-5.20392251 24.07607949 -6.44296447 38.37176315 -6.40063477 53.90161133 C-6.40639389 55.83583496 -6.41348338 57.77005501 -6.42178345 59.70426941 C-6.43678261 63.83842611 -6.44268056 67.97245462 -6.44125557 72.10663795 C-6.4391979 78.68352342 -6.45895457 85.26024102 -6.48143005 91.83708191 C-6.52224837 104.64554902 -6.54093967 117.45400249 -6.55760193 130.26251984 C-6.57999849 146.49489873 -6.61420935 162.72723734 -6.66480106 178.95955294 C-6.68121017 184.4076311 -6.69339353 189.85564685 -6.69503975 195.30375099 C-6.71478364 259.27839585 -6.71478364 259.27839585 -11.12231445 290.67651367 C-11.45349971 293.05227404 -11.75563698 295.43078881 -12.05664062 297.81054688 C-12.26401352 299.36219539 -12.47292581 300.91363917 -12.68359375 302.46484375 C-12.77120468 303.15730698 -12.85881561 303.8497702 -12.94908142 304.56321716 C-13.92537799 311.29552212 -16.7075258 314.94894875 -21.5625 319.5 C-31.66127005 329.43730715 -38.99774562 340.77142531 -46 353 C-50.83350865 349.607593 -53.88174992 345.44423483 -57.25 340.6875 C-57.82065186 339.88787842 -58.39130371 339.08825684 -58.97924805 338.2644043 C-63.66115868 331.62911809 -67.99581395 324.85134846 -71.99121094 317.78271484 C-72.97118841 316.05091536 -73.97356727 314.33185213 -74.9765625 312.61328125 C-94.68086886 278.03641339 -103.45892726 238.18036177 -103.375 198.6875 C-103.37445618 197.72155914 -103.37391235 196.75561829 -103.37335205 195.76040649 C-103.33232791 179.86322306 -102.40757363 164.5804432 -99 149 C-98.78569336 148.01386719 -98.57138672 147.02773438 -98.35058594 146.01171875 C-89.08101149 104.83160053 -69.73696927 67.64800159 -41.2890625 36.51171875 C-39.74739771 34.8200968 -38.22154556 33.11394349 -36.7109375 31.39453125 C-32.0995986 26.15725459 -27.36658364 21.45171789 -22 17 C-21.07058594 16.2059375 -20.14117187 15.411875 -19.18359375 14.59375 C-13.02769199 9.35641722 -6.72198848 4.49124009 0 0 Z " fill="#87B5B3" transform="translate(127,122)"/>
<path d="M0 0 C10.81712718 6.50701461 20.21707062 14.25218747 29.5234375 22.74609375 C31.20252205 24.2742196 32.89580823 25.78685858 34.6015625 27.28515625 C39.8406503 31.89903569 44.54206751 36.63520758 49 42 C49.73605469 42.84820312 50.47210938 43.69640625 51.23046875 44.5703125 C88.49394117 88.05423739 108.49641891 143.17754199 108.375 200.3125 C108.37445618 201.27844086 108.37391235 202.24438171 108.37335205 203.23959351 C108.33232791 219.13677694 107.40757363 234.4195568 104 250 C103.67854004 251.47919922 103.67854004 251.47919922 103.35058594 252.98828125 C97.56248755 278.70192939 87.91725044 303.58024928 74 326 C71.75553987 323.92841308 70.32925293 322.02414889 68.98217773 319.2890625 C68.6142662 318.54978516 68.24635468 317.81050781 67.86729431 317.04882812 C67.47667313 316.24896484 67.08605194 315.44910156 66.68359375 314.625 C66.26763443 313.78646484 65.85167511 312.94792969 65.42311096 312.08398438 C64.08886139 309.39210438 62.76273575 306.69632742 61.4375 304 C59.71031066 300.498372 57.97946366 296.9985724 56.24609375 293.5 C55.81403625 292.62720398 55.38197876 291.75440796 54.93682861 290.85516357 C51.57037204 284.08202636 48.07550692 277.38316569 44.53260803 270.70098877 C40.86340043 263.77288511 37.34916732 256.77784547 33.875 249.75 C30.29809905 242.52668365 26.69311919 235.34466195 22.75 228.3125 C15.23330023 214.3114369 9.50086031 199.25914009 5.5625 183.875 C5.33997559 183.02043213 5.11745117 182.16586426 4.88818359 181.28540039 C0.3330935 162.12351447 -0.44000432 142.75926369 -0.328125 123.15625 C-0.32505642 120.76208618 -0.32318867 118.36792056 -0.32244873 115.97375488 C-0.31789438 111.00896135 -0.30364785 106.04433445 -0.28125 101.07958984 C-0.25272292 94.72595144 -0.24200794 88.37244184 -0.2375679 82.01874542 C-0.23241596 75.91873056 -0.21789857 69.81874771 -0.203125 63.71875 C-0.20124428 62.56530594 -0.19936356 61.41186188 -0.19742584 60.22346497 C-0.1905397 56.96078137 -0.17690237 53.69819815 -0.16113281 50.43554688 C-0.16001495 49.47761734 -0.15889709 48.51968781 -0.15774536 47.5327301 C-0.12608237 42.57808622 0.18848386 37.88734714 1 33 C1.08178503 31.46768811 1.13040357 29.93292853 1.1328125 28.3984375 C1.13474609 27.58407227 1.13667969 26.76970703 1.13867188 25.93066406 C1.1319043 24.66561035 1.1319043 24.66561035 1.125 23.375 C1.12306641 22.50069336 1.12113281 21.62638672 1.11914062 20.72558594 C1.0731531 13.77891419 0.70648709 6.91348076 0 0 Z " fill="#87B5B3" transform="translate(396,119)"/>
<path d="M0 0 C1.125 5.75 1.125 5.75 0 8 C1.01320313 8.32613281 2.02640625 8.65226563 3.0703125 8.98828125 C4.42195504 9.42944236 5.77351307 9.87086242 7.125 10.3125 C7.79015625 10.52583984 8.4553125 10.73917969 9.140625 10.95898438 C12.29431298 11.99475445 15.08800296 13.04752615 18.0234375 14.6328125 C24.15892683 17.45095064 32.46075274 17.30862193 38.9765625 15.43017578 C42.04413155 14.28693824 44.97034325 12.89682433 47.9140625 11.46875 C51.59258335 9.71796033 55.02233146 8.79553371 59 8 C58.01 7.01 58.01 7.01 57 6 C57.375 3.375 57.375 3.375 58 1 C69.37535267 -3.6272621 82.43723393 -3.40848671 93.89306641 1.15161133 C94.91062012 1.5823999 95.92817383 2.01318848 96.9765625 2.45703125 C103.89376672 5.16068277 110.52864429 6.18407632 117.875 7 C128.16544137 8.31006145 137.42256278 9.96995037 147 14 C148.63388672 14.67289063 148.63388672 14.67289063 150.30078125 15.359375 C157.79948339 18.59896677 157.79948339 18.59896677 159 21 C159.2734375 23.49609375 159.2734375 23.49609375 159.375 26.4375 C159.42398437 27.40558594 159.47296875 28.37367188 159.5234375 29.37109375 C159 32 159 32 156.90234375 33.7734375 C153.63006708 35.15633774 150.7070106 35.72534204 147.1875 36.1875 C146.02605469 36.34605469 144.86460937 36.50460938 143.66796875 36.66796875 C142.78753906 36.77753906 141.90710938 36.88710937 141 37 C141.04640625 37.93199219 141.0928125 38.86398438 141.140625 39.82421875 C141.46387092 51.24172638 140.35123513 62.12978328 132.6875 71.23046875 C122.66883782 81.73614923 110.91603954 87.67141803 96.24609375 88.25 C81.00052351 88.56664771 67.02101671 87.71800259 54 79 C45.2672283 70.5476384 41.09723798 60.86172472 40.87890625 48.796875 C40.8558676 44.86291602 40.91216781 40.93293029 41 37 C36.93962888 36.03691387 33.10599699 35.83479143 28.9375 35.8125 C27.72964844 35.79832031 26.52179688 35.78414062 25.27734375 35.76953125 C21.26036195 35.96910638 21.26036195 35.96910638 18 38 C17.43884555 40.90479106 17.43884555 40.90479106 17.5 44.3125 C16.87986309 57.74879978 12.9923401 67.51477253 3.25 76.6875 C-11.36125389 88.83587208 -28.67771411 88.82015211 -46.68359375 87.7890625 C-57.44372744 86.60373566 -67.70278908 82.41893468 -74.6875 73.9375 C-81.91075575 63.6955702 -83.16235789 54.36781646 -83.4609375 42.00390625 C-83.73091905 38.95956611 -83.73091905 38.95956611 -85.7109375 37.1328125 C-88.33003828 35.83667047 -90.34109091 35.5038756 -93.25 35.3125 C-94.14203125 35.24675781 -95.0340625 35.18101562 -95.953125 35.11328125 C-96.62859375 35.07589844 -97.3040625 35.03851563 -98 35 C-98 34.34 -98 33.68 -98 33 C-98.66 33 -99.32 33 -100 33 C-101.20996679 30.58006642 -101.27083271 28.8253367 -101.375 26.125 C-101.42398438 25.26132813 -101.47296875 24.39765625 -101.5234375 23.5078125 C-101 21 -101 21 -98.8359375 18.83984375 C-94.18219238 15.82067853 -89.16463869 13.97315683 -84 12 C-83.22140625 11.69835937 -82.4428125 11.39671875 -81.640625 11.0859375 C-73.49391004 8.1424164 -65.11860898 7.06894561 -56.5 6.6875 C-50.68571586 6.3072555 -46.34974831 4.65920795 -41.08203125 2.27734375 C-28.66732896 -2.86791309 -12.88543912 -4.29514637 0 0 Z " fill="#232629" transform="translate(235,178)"/>
<path d="M0 0 C0.33 0 0.66 0 1 0 C1.05945801 1.05405029 1.05945801 1.05405029 1.12011719 2.12939453 C3.76098342 47.00223493 17.34057792 82.71408572 37.98455811 122.19952393 C41.04150725 128.05560293 44.00611308 133.95508307 46.9375 139.875 C50.18609337 146.4222579 53.51087148 152.91916121 56.9375 159.375 C60.89945208 166.87256718 64.82652922 174.38738323 68.6875 181.9375 C69.22947021 182.97503418 69.77144043 184.01256836 70.32983398 185.08154297 C70.82298096 186.05365723 71.31612793 187.02577148 71.82421875 188.02734375 C72.26854248 188.89093506 72.71286621 189.75452637 73.1706543 190.64428711 C74.11356931 193.32258766 74.02817622 194.39377286 73 197 C68.38863008 204.88628537 62.72739411 212.10737109 57.1015625 219.28515625 C55.66625409 221.1393186 54.30065406 223.04901891 53 225 C52.34 225 51.68 225 51 225 C50.50693359 223.90945313 50.50693359 223.90945313 50.00390625 222.796875 C44.25375001 210.64207319 36.1846851 200.73254351 27 191 C26.32710938 190.26265625 25.65421875 189.5253125 24.9609375 188.765625 C17.81056262 181.21354367 8.62485744 173.24269534 -1 169 C-1.32871094 169.60585938 -1.65742188 170.21171875 -1.99609375 170.8359375 C-13.832526 191.68602141 -34.77089662 204.4253569 -57 212 C-57.39453125 208.796875 -57.39453125 208.796875 -57 205 C-54.86420078 203.01698058 -53.1353552 201.72332218 -50.6875 200.25 C-34.89875083 189.82766278 -24.61940721 176.56880134 -20 158 C-22.44459905 157.31035394 -24.89296821 156.64142018 -27.34765625 155.98828125 C-29.93287386 155.28875178 -32.49311664 154.55703867 -35.05859375 153.79296875 C-50.77472102 149.3109368 -66.77077889 148.21431835 -83 147 C-83.32320225 141.87772237 -83.55796968 136.76144152 -83.71411133 131.63134766 C-83.77920754 129.89038738 -83.86773109 128.1501306 -83.98071289 126.41162109 C-84.71174602 114.86725178 -84.71174602 114.86725178 -83 110 C-79.12536456 106.00472764 -75.11954292 104.20024764 -70 102 C-46.66481386 87.18469944 -30.53634041 63.55493309 -23.45117188 37.04394531 C-22.98066648 34.91241328 -22.69486393 32.81731918 -22.453125 30.6484375 C-21.97619044 26.53115089 -21.46669891 22.9021434 -20 19 C-17.09181374 16.73712134 -14.39657322 15.57862367 -10.95703125 14.28515625 C-5.44078607 11.88773925 -3.04414938 7.2781441 -0.625 2 C-0.41875 1.34 -0.2125 0.68 0 0 Z " fill="#B38043" transform="translate(395,251)"/>
<path d="M0 0 C3.23811502 1.43754882 5.53200898 3.22337363 8.125 5.625 C11.25748419 8.46668354 14.43111065 11.19090173 17.75 13.8125 C38.70171474 30.45062641 56.87290418 47.61094288 67 73 C67 73.33 67 73.66 67 74 C33.64595397 71.06710935 33.64595397 71.06710935 20.47265625 65.3046875 C9.8306071 61.30643731 -2.57584495 61.75966574 -13 66 C-13 67.32 -13 68.64 -13 70 C-12.34 70.66 -11.68 71.32 -11 72 C-12.19625 72.37125 -13.3925 72.7425 -14.625 73.125 C-17.60258609 74.08656056 -20.33446116 75.16287885 -23.15234375 76.53515625 C-32.48572682 81.05751712 -41.69749922 83.42434693 -51.94140625 80.43310547 C-56.10919007 78.92795356 -60.03833462 76.97080316 -64 75 C-66.64805857 73.93374633 -69.31385315 72.96701286 -72 72 C-71.835 71.05125 -71.67 70.1025 -71.5 69.125 C-70.9473365 66.19831099 -70.9473365 66.19831099 -71 64 C-85.68345398 61.55275767 -101.07286924 62.07670152 -114.625 68.625 C-122.9096934 72.38358706 -132.06036396 71.90283004 -141 72 C-117.68946979 52.81827219 -88.28223907 42.12715477 -60.25 31.9375 C-27.67972836 20.17216057 -27.67972836 20.17216057 0 0 Z " fill="#EBB889" transform="translate(306,114)"/>
<path d="M0 0 C0.07501586 4.49825874 0.12900383 8.99617127 0.16479492 13.49487305 C0.17973934 15.02032832 0.20010247 16.54574172 0.22631836 18.07104492 C0.50986637 35.01164837 -2.4745142 49.06005444 -14.49609375 61.67578125 C-23.68828988 70.208319 -35.02509863 75.00176854 -47.625 75.4375 C-62.44249379 74.78474697 -74.98639318 68.85367451 -85 58 C-91.85646926 49.05565852 -95.52197127 40.31013036 -95.29296875 29.02734375 C-95.28872391 28.21882462 -95.28447906 27.41030548 -95.28010559 26.57728577 C-95.26350035 24.03033127 -95.22588533 21.4842096 -95.1875 18.9375 C-95.17242958 17.19597508 -95.15874534 15.45443759 -95.14648438 13.71289062 C-95.11365684 9.47494639 -95.06200455 5.23761368 -95 1 C-85.78983697 3.75062451 -85.78983697 3.75062451 -81.5234375 5.09765625 C-49.29325346 14.97464813 -29.50149612 0 0 0 Z " fill="#ECB88A" transform="translate(312,377)"/>
<path d="M0 0 C2.34135837 0.00320093 4.68149849 -0.02051677 7.02270508 -0.0456543 C8.51684412 -0.04792389 10.01098654 -0.04863237 11.50512695 -0.04760742 C12.20198105 -0.05681717 12.89883514 -0.06602692 13.61680603 -0.07551575 C18.4661096 -0.02891717 18.4661096 -0.02891717 20.71923828 1.82885742 C21.29581177 2.56483154 21.29581177 2.56483154 21.8840332 3.31567383 C23.93735858 3.52845826 23.93735858 3.52845826 26.1340332 3.25317383 C31.28266572 3.08573862 33.71895099 4.29394752 37.8840332 7.31567383 C42.67415017 12.23525342 44.11864767 17.31314422 44.16259766 24.1262207 C44.15317139 24.80749023 44.14374512 25.48875977 44.1340332 26.19067383 C44.12279419 27.25511719 44.12279419 27.25511719 44.11132812 28.34106445 C43.93808708 36.7572884 42.46388847 43.77964617 36.8840332 50.31567383 C22.91913753 62.69250375 6.56571358 63.15751014 -11.1159668 62.31567383 C-19.35836864 61.55922196 -27.06966695 59.15515859 -33.1159668 53.31567383 C-41.12144526 42.75453522 -41.14699883 31.13005474 -39.80737305 18.37817383 C-38.73581055 12.7643243 -36.88766895 9.25983301 -32.20581055 5.97583008 C-22.19609098 -0.11474003 -11.40348842 -0.03271642 0 0 Z " fill="#EBB789" transform="translate(324.115966796875,195.684326171875)"/>
<path d="M0 0 C1.08081848 -0.00430527 1.08081848 -0.00430527 2.18347168 -0.00869751 C3.70988754 -0.01073641 5.23632963 -0.00521861 6.76269531 0.00732422 C9.05856618 0.02319429 11.35262579 0.00756963 13.6484375 -0.01171875 C24.92084161 -0.02777413 36.10548257 0.67758141 45.59375 7.3984375 C50.38386697 12.31801709 51.82836447 17.39590789 51.87231445 24.20898438 C51.86288818 24.89025391 51.85346191 25.57152344 51.84375 26.2734375 C51.83251099 27.33788086 51.83251099 27.33788086 51.82104492 28.42382812 C51.64780388 36.84005207 50.17360527 43.86240985 44.59375 50.3984375 C30.62885433 62.77526742 14.27543038 63.24027381 -3.40625 62.3984375 C-11.64865184 61.64198564 -19.35995015 59.23792227 -25.40625 53.3984375 C-33.41172846 42.83729889 -33.43728204 31.21281841 -32.09765625 18.4609375 C-30.86608857 12.00883069 -28.41045973 8.82450981 -23.15625 5.0859375 C-20.37186886 3.57698256 -18.37258089 3.21847639 -15.21875 3.3359375 C-11.51134188 3.81022321 -11.51134188 3.81022321 -9.63085938 1.92724609 C-6.52521694 -0.20703101 -3.63699149 -0.03222312 0 0 Z " fill="#EBB789" transform="translate(192.40625,195.6015625)"/>
<path d="M0 0 C3.23811502 1.43754882 5.53200898 3.22337363 8.125 5.625 C11.25748419 8.46668354 14.43111065 11.19090173 17.75 13.8125 C57.68351434 45.52440844 57.68351434 45.52440844 61 62 C58.68284509 59.75525618 56.44339591 57.53314352 54.37890625 55.05078125 C50.5400225 50.45237641 46.41558024 46.53323096 41.69140625 42.859375 C40.7806987 42.14825058 40.7806987 42.14825058 39.85159302 41.42276001 C33.54226382 36.55568971 26.99079298 32.07394555 20.34619141 27.68017578 C18.33553227 26.34886742 16.33362552 25.0050455 14.33203125 23.66015625 C13.04216066 22.80134093 11.75181448 21.94323938 10.4609375 21.0859375 C9.86928802 20.6881308 9.27763855 20.2903241 8.6680603 19.88046265 C4.62703014 17.19059469 4.62703014 17.19059469 0 16 C-2.12710684 17.14737726 -2.12710684 17.14737726 -4.25 18.9375 C-21.04615911 31.21255116 -41.57331555 36.91512596 -61.10546875 43.33203125 C-64.75812243 44.53291445 -68.41050844 45.73460465 -72.0625 46.9375 C-72.97422974 47.23769043 -73.88595947 47.53788086 -74.82531738 47.84716797 C-90.73941838 53.10211094 -106.53601151 58.63125353 -121.4921875 66.2734375 C-125 68 -125 68 -127 68 C-127 68.66 -127 69.32 -127 70 C-125.02 70 -123.04 70 -121 70 C-121 70.33 -121 70.66 -121 71 C-127.6 71.33 -134.2 71.66 -141 72 C-117.31529987 53.0522399 -88.473173 42.19655882 -60.25 31.9375 C-27.67972836 20.17216057 -27.67972836 20.17216057 0 0 Z " fill="#C69A73" transform="translate(306,114)"/>
<path d="M0 0 C3.34125 1.36125 3.34125 1.36125 6.75 2.75 C34.89649673 13.48780073 65.35116261 12.93826205 93 1 C93.99 0.67 94.98 0.34 96 0 C96 5.28 96 10.56 96 16 C91.04350867 19.04516461 86.40505177 21.06569802 80.8125 22.625 C80.06274902 22.83664795 79.31299805 23.0482959 78.54052734 23.26635742 C53.5600768 30.15244048 24.4442441 28.72212205 1 17 C0.67 11.39 0.34 5.78 0 0 Z " fill="#D6A77C" transform="translate(216,361)"/>
<path d="M0 0 C0.06952543 10.47469199 0.12282425 20.94932904 0.15543652 31.42420483 C0.17108917 36.28817587 0.1923202 41.15198899 0.22631836 46.01586914 C0.25892598 50.71021895 0.27685603 55.4044169 0.28463173 60.09887123 C0.29017271 61.88943179 0.30099291 63.67998409 0.31719017 65.47047997 C0.33898321 67.97944443 0.34196616 70.48778221 0.34057617 72.99682617 C0.35675491 74.10597633 0.35675491 74.10597633 0.3732605 75.23753357 C0.34679765 79.65498826 -0.21379441 82.52209455 -3 86 C-5.875 87.125 -5.875 87.125 -9 87 C-12.46296485 84.34884478 -13.85158205 82.86061317 -14.60127258 78.51347351 C-14.61565542 77.16094916 -14.60271775 75.8079561 -14.56762695 74.45581055 C-14.56835709 73.71380905 -14.56908722 72.97180756 -14.56983948 72.20732117 C-14.56636916 69.76636427 -14.5275385 67.32734023 -14.48828125 64.88671875 C-14.47895104 63.18993675 -14.47183591 61.49314125 -14.46684265 59.79634094 C-14.44778894 55.33916775 -14.39870285 50.88281449 -14.34332275 46.42596436 C-14.29209474 41.87458385 -14.26932107 37.32307033 -14.24414062 32.77148438 C-14.19058199 23.8472968 -14.10528938 14.92371669 -14 6 C-12.04414675 4.99515796 -10.08523763 3.99626195 -8.125 3 C-6.48917969 2.1646875 -6.48917969 2.1646875 -4.8203125 1.3125 C-2 0 -2 0 0 0 Z " fill="#F3F3F3" transform="translate(338,457)"/>
<path d="M0 0 C0.94875 0.04125 1.8975 0.0825 2.875 0.125 C3.308125 1.23875 3.74125 2.3525 4.1875 3.5 C5.57411119 7.30012334 5.57411119 7.30012334 8.875 9.125 C11.16102633 9.44808089 11.16102633 9.44808089 13.72607422 9.43139648 C14.71074677 9.44738388 15.69541931 9.46337128 16.70993042 9.47984314 C18.30371017 9.48788719 18.30371017 9.48788719 19.9296875 9.49609375 C21.02338654 9.50512222 22.11708557 9.5141507 23.243927 9.52345276 C25.55891171 9.53796797 27.87393757 9.54684514 30.18896484 9.55053711 C33.72954502 9.56243128 37.26838163 9.61160531 40.80859375 9.66210938 C43.05728315 9.67157364 45.30598327 9.67880866 47.5546875 9.68359375 C49.14239456 9.71289223 49.14239456 9.71289223 50.76217651 9.74278259 C56.84589712 9.72947377 56.84589712 9.72947377 62.03173828 6.73461914 C63.68250307 4.39752976 64.56222099 2.9400111 64.875 0.125 C66.525 0.455 68.175 0.785 69.875 1.125 C71.89412129 7.35062399 69.61974215 12.50370606 66.875 18.125 C61.49456522 26.31521739 61.49456522 26.31521739 57.875 28.125 C56.13985727 27.16103181 54.40602998 26.19080303 52.7265625 25.1328125 C46.97729274 22.00346314 39.76066911 22.64405515 33.5 23.6875 C30.74696079 24.14633987 29.52032971 23.81064612 26.875 23.125 C18.97888593 22.15530178 13.63145841 24.09987584 6.875 28.125 C0.23629922 21.02313405 -4.31201226 13.7663297 -5.27734375 3.9375 C-4.97722435 0.36684862 -3.27583089 0.13103324 0 0 Z " fill="#4A392B" transform="translate(231.125,293.875)"/>
<path d="M0 0 C0.33 0 0.66 0 1 0 C1 26.07 1 52.14 1 79 C-11 76 -11 76 -13 75 C-13.2045554 67.97536574 -13.3436463 60.9515118 -13.43945312 53.92456055 C-13.47943246 51.53950301 -13.53383647 49.15463835 -13.60351562 46.77026367 C-14.01429353 32.34168972 -14.17130823 22.47961243 -5 11 C-3.1678028 7.39850112 -1.5543184 3.72886962 0 0 Z " fill="#F3F3F3" transform="translate(203,474)"/>
<path d="M0 0 C7.05582926 1.94290951 12.8653455 5.04257152 19 9 C13.86305488 26.48094759 -2.58211392 37.28324221 -17.65722656 45.75 C-33.11953125 54 -33.11953125 54 -37 54 C-37.39453125 50.796875 -37.39453125 50.796875 -37 47 C-34.86420078 45.01698058 -33.1353552 43.72332218 -30.6875 42.25 C-14.89875083 31.82766278 -4.61940721 18.56880134 0 0 Z " fill="#A05461" transform="translate(375,409)"/>
<path d="M0 0 C0.66 0.33 1.32 0.66 2 1 C-5.13765278 41.50179674 -5.13765278 41.50179674 -12 58 C-18.70821055 52.63343156 -24.28806145 46.38332373 -30 40 C-23.4277004 24.5678048 -11.81625066 11.66077368 0 0 Z " fill="#DB7689" transform="translate(110,436)"/>
<path d="M0 0 C15.84 0 31.68 0 48 0 C46.88705889 6.67764664 46.1190402 7.5498348 41.22265625 11.453125 C33.73775971 16.66229729 25.96354947 16.89635495 17 16 C10.17798976 14.38137291 5.31039383 11.52614593 1 6 C0.67 4.02 0.34 2.04 0 0 Z " fill="#C79B74" transform="translate(240,260)"/>
<path d="M0 0 C3.34399057 0.7466298 3.34399057 0.7466298 5.5 -0.5625 C11.83733344 -1.17503037 17.91066611 -0.83311459 23.5 2.4375 C24.86886951 3.73432374 26.20997021 5.06222595 27.5 6.4375 C25.629287 7.56961434 23.75321809 8.69288095 21.875 9.8125 C20.83085937 10.43898438 19.78671875 11.06546875 18.7109375 11.7109375 C10.12483875 16.32779352 0.81493016 16.87447673 -8.67578125 14.71484375 C-14.29643213 12.79464905 -18.9623449 10.26929764 -23.5 6.4375 C-23.5 5.7775 -23.5 5.1175 -23.5 4.4375 C-15.43148302 -1.019468 -9.41788687 -1.24322919 0 0 Z " fill="#F94F6B" transform="translate(262.5,316.5625)"/>
<path d="M0 0 C20.46 0 40.92 0 62 0 C60.90057641 5.49711797 60.47545753 6.82362195 56 10 C52.24941559 10.73704206 48.5625861 10.70073602 44.75 10.6640625 C43.65913086 10.66884613 42.56826172 10.67362976 41.44433594 10.67855835 C39.14126135 10.68195613 36.83813845 10.67276243 34.53515625 10.65185547 C31.01192583 10.6250906 27.49188144 10.65161001 23.96875 10.68359375 C21.72915964 10.68028963 19.48957126 10.67388337 17.25 10.6640625 C16.19780273 10.67418365 15.14560547 10.68430481 14.06152344 10.69473267 C9.33074978 10.61899964 6.79218233 10.56223761 2.859375 7.77099609 C1 5 1 5 0 0 Z " fill="#FCFCFC" transform="translate(234,294)"/>
<path d="M0 0 C1.74093471 2.26321512 3.3643077 4.55233749 4.9375 6.9375 C10.79200839 15.63055791 18.12262231 20.02761998 28.10546875 22.890625 C47.08014136 26.32717631 66.70560634 25.05690998 83 14 C87.93878689 10.00105688 91.12599841 5.63304311 94 0 C94.93297347 2.49542301 95.1771908 3.59014997 94.1015625 6.078125 C85.99165681 18.00698099 75.56298999 25.31303115 61.45703125 28.5 C45.32830595 30.83274219 26.92110031 29.91924233 13 21 C10.0625 18.5 10.0625 18.5 8 16 C7.13375 15.030625 6.2675 14.06125 5.375 13.0625 C1.97604733 8.67963998 0 5.60642723 0 0 Z " fill="#B8906C" transform="translate(278,241)"/>
<path d="M0 0 C1.74093471 2.26321512 3.3643077 4.55233749 4.9375 6.9375 C10.79200839 15.63055791 18.12262231 20.02761998 28.10546875 22.890625 C47.08014136 26.32717631 66.70560634 25.05690998 83 14 C87.93878689 10.00105688 91.12599841 5.63304311 94 0 C94.93297347 2.49542301 95.1771908 3.59014997 94.1015625 6.078125 C85.99165681 18.00698099 75.56298999 25.31303115 61.45703125 28.5 C45.32830595 30.83274219 26.92110031 29.91924233 13 21 C10.0625 18.5 10.0625 18.5 8 16 C7.13375 15.030625 6.2675 14.06125 5.375 13.0625 C1.97604733 8.67963998 0 5.60642723 0 0 Z " fill="#B8906C" transform="translate(154,241)"/>
<path d="M0 0 C4.57922607 2.68660239 7.59222914 5.32274172 9.9375 10.13671875 C9.9375 11.12671875 9.9375 12.11671875 9.9375 13.13671875 C6.42361589 12.57449729 3.80073728 10.95760167 0.81640625 9.07421875 C-6.10758447 5.61942088 -15.8685193 6.17430101 -23.0625 8.44921875 C-26.15290056 9.61509188 -28.44372348 11.12227527 -31.0625 13.13671875 C-32.0525 12.80671875 -33.0425 12.47671875 -34.0625 12.13671875 C-32.78689955 6.18391664 -29.88361699 3.4789655 -25.0625 0.13671875 C-16.93411655 -4.55273324 -8.23188962 -4.18944383 0 0 Z " fill="#654F3A" transform="translate(334.0625,214.86328125)"/>
<path d="M0 0 C4.57922607 2.68660239 7.59222914 5.32274172 9.9375 10.13671875 C9.9375 11.12671875 9.9375 12.11671875 9.9375 13.13671875 C6.42361589 12.57449729 3.80073728 10.95760167 0.81640625 9.07421875 C-6.10758447 5.61942088 -15.8685193 6.17430101 -23.0625 8.44921875 C-26.15290056 9.61509188 -28.44372348 11.12227527 -31.0625 13.13671875 C-32.0525 12.80671875 -33.0425 12.47671875 -34.0625 12.13671875 C-32.78689955 6.18391664 -29.88361699 3.4789655 -25.0625 0.13671875 C-16.93411655 -4.55273324 -8.23188962 -4.18944383 0 0 Z " fill="#654F3A" transform="translate(218.0625,214.86328125)"/>
<path d="M0 0 C2.34135837 0.00320093 4.68149849 -0.02051677 7.02270508 -0.0456543 C8.51684412 -0.04792389 10.01098654 -0.04863237 11.50512695 -0.04760742 C12.20198105 -0.05681717 12.89883514 -0.06602692 13.61680603 -0.07551575 C18.4661096 -0.02891717 18.4661096 -0.02891717 20.71923828 1.82885742 C21.29581177 2.56483154 21.29581177 2.56483154 21.8840332 3.31567383 C23.93735858 3.52845826 23.93735858 3.52845826 26.1340332 3.25317383 C31.28266572 3.08573862 33.71895099 4.29394752 37.8840332 7.31567383 C41.84920038 11.38800769 43.76100855 15.48610687 44.0090332 21.19067383 C43.9677832 21.89192383 43.9265332 22.59317383 43.8840332 23.31567383 C43.6365332 22.80004883 43.3890332 22.28442383 43.1340332 21.75317383 C42.7215332 20.94879883 42.3090332 20.14442383 41.8840332 19.31567383 C41.3890332 18.18129883 40.8940332 17.04692383 40.3840332 15.87817383 C36.94909168 9.92768034 30.36336779 8.0482045 24.1027832 6.19848633 C17.59543512 4.83623193 10.95615267 4.98065464 4.33789062 5 C2.08649902 5.00315287 -0.16356557 4.97966251 -2.41479492 4.9543457 C-13.54491349 4.90516823 -26.52726251 5.20053218 -35.1159668 13.31567383 C-36.54970766 15.65340045 -37.28607121 17.67038164 -38.1159668 20.31567383 C-38.4459668 20.31567383 -38.7759668 20.31567383 -39.1159668 20.31567383 C-38.73440855 14.68768963 -38.42508131 11.30160476 -34.1159668 7.31567383 C-23.68807066 -0.00513489 -12.31808159 -0.03534037 0 0 Z " fill="#B68E6B" transform="translate(324.115966796875,195.684326171875)"/>
<path d="M0 0 C0.625 2.875 0.625 2.875 1 6 C-1 8 -1 8 -2.8125 8.23046875 C-6.71307131 8.15385039 -10.55312328 7.97005403 -14.4296875 7.5234375 C-20.98226102 6.84690556 -27.5438226 6.65240997 -34.125 6.4375 C-35.36765625 6.39431641 -36.6103125 6.35113281 -37.890625 6.30664062 C-40.92699671 6.20153545 -43.96343665 6.09938657 -47 6 C-33.9210471 -2.71930193 -14.99676801 -4.99892267 0 0 Z " fill="#654F3B" transform="translate(235,178)"/>
<path d="M0 0 C1.08081848 -0.00430527 1.08081848 -0.00430527 2.18347168 -0.00869751 C3.70988754 -0.01073641 5.23632963 -0.00521861 6.76269531 0.00732422 C9.05856618 0.02319429 11.35262579 0.00756963 13.6484375 -0.01171875 C24.92084161 -0.02777413 36.10548257 0.67758141 45.59375 7.3984375 C49.55891718 11.47077136 51.47072535 15.56887054 51.71875 21.2734375 C51.6775 21.9746875 51.63625 22.6759375 51.59375 23.3984375 C51.34625 22.8828125 51.09875 22.3671875 50.84375 21.8359375 C50.43125 21.0315625 50.01875 20.2271875 49.59375 19.3984375 C49.09875 18.2640625 48.60375 17.1296875 48.09375 15.9609375 C44.65880848 10.01044401 38.07308459 8.13096817 31.8125 6.28125 C25.30515191 4.91899561 18.66586947 5.06341831 12.04760742 5.08276367 C9.79621581 5.08591654 7.54615123 5.06242618 5.29492188 5.03710938 C-5.8351967 4.9879319 -18.81754571 5.28329585 -27.40625 13.3984375 C-28.83999086 15.73616413 -29.57635441 17.75314531 -30.40625 20.3984375 C-30.73625 20.3984375 -31.06625 20.3984375 -31.40625 20.3984375 C-31.02408542 14.76150991 -30.67222823 11.43989056 -26.40625 7.3984375 C-22.4670849 4.59557003 -20.06280915 3.15552561 -15.21875 3.3359375 C-11.51134188 3.81022321 -11.51134188 3.81022321 -9.63085938 1.92724609 C-6.52521694 -0.20703101 -3.63699149 -0.03222312 0 0 Z " fill="#B78F6B" transform="translate(192.40625,195.6015625)"/>
<path d="M0 0 C0 0.33 0 0.66 0 1 C-0.61705811 1.01981934 -1.23411621 1.03963867 -1.86987305 1.06005859 C-16.31369548 1.54325458 -30.63037983 2.4582595 -45 4 C-47 1 -47 1 -46.625 -1.6875 C-46.41875 -2.450625 -46.2125 -3.21375 -46 -4 C-30.31155674 -10.38173963 -15.01957018 -6.25616437 0 0 Z " fill="#654F3B" transform="translate(339,183)"/>
<path d="M0 0 C1.20527344 -0.00515625 2.41054688 -0.0103125 3.65234375 -0.015625 C6.90373725 0.2376336 9.14216971 0.85356123 12.0625 2.25 C12.0625 3.57 12.0625 4.89 12.0625 6.25 C11.0415625 6.00830078 11.0415625 6.00830078 10 5.76171875 C6.6450694 5.1772827 3.46757856 5.08084633 0.0625 5.0625 C-1.13375 5.04832031 -2.33 5.03414062 -3.5625 5.01953125 C-6.81445208 5.24159742 -9.02020531 5.85212963 -11.9375 7.25 C-11.6875 4.875 -11.6875 4.875 -10.9375 2.25 C-7.4947459 -0.2007741 -4.11723895 -0.01757626 0 0 Z " fill="#B58E6A" transform="translate(263.9375,212.75)"/>
<path d="M0 0 C0 1.32 0 2.64 0 4 C-22.38850081 9.76303063 -22.38850081 9.76303063 -34 10 C-34 9.67 -34 9.34 -34 9 C-33.17761841 8.80422363 -33.17761841 8.80422363 -32.33862305 8.60449219 C-18.46135146 5.33397617 -18.46135146 5.33397617 -4.99609375 0.69921875 C-3 0 -3 0 0 0 Z " fill="#935261" transform="translate(324,464)"/>
<path d="M0 0 C0.66 0.99 1.32 1.98 2 3 C-0.32079101 6.27479205 -3.14519947 6.65843594 -6.95117188 7.33007812 C-7.68916016 7.44802734 -8.42714844 7.56597656 -9.1875 7.6875 C-10.31188477 7.88182617 -10.31188477 7.88182617 -11.45898438 8.08007812 C-13.30418359 8.39740538 -15.151883 8.70013291 -17 9 C-17 7.68 -17 6.36 -17 5 C-13.4254896 3.44104382 -10.09579145 2.55594484 -6.25 1.9375 C-2.81776246 1.62401117 -2.81776246 1.62401117 0 0 Z " fill="#B9916C" transform="translate(393,210)"/>
<path d="M0 0 C0 1.98 0 3.96 0 6 C-1.76858691 6.67260351 -3.53996016 7.33788395 -5.3125 8 C-6.29863281 8.37125 -7.28476562 8.7425 -8.30078125 9.125 C-11 10 -11 10 -14 10 C-14 8.68 -14 7.36 -14 6 C-12.04414675 4.99515796 -10.08523763 3.99626195 -8.125 3 C-6.48917969 2.1646875 -6.48917969 2.1646875 -4.8203125 1.3125 C-2 0 -2 0 0 0 Z " fill="#CACACA" transform="translate(338,457)"/>
<path d="M0 0 C3.58505979 1.11954813 7.16772288 2.24658271 10.75 3.375 C12.27367187 3.85066406 12.27367187 3.85066406 13.828125 4.3359375 C15.29765625 4.8 15.29765625 4.8 16.796875 5.2734375 C18.14797363 5.69761963 18.14797363 5.69761963 19.52636719 6.13037109 C21.80276208 6.93065915 23.87299834 7.86704606 26 9 C20.13527887 9.2384033 14.84910413 8.35909584 9.125 7.125 C8.25875 6.95097656 7.3925 6.77695312 6.5 6.59765625 C5.67757812 6.42363281 4.85515625 6.24960937 4.0078125 6.0703125 C3.26160645 5.91320801 2.51540039 5.75610352 1.74658203 5.59423828 C0 5 0 5 -1 3 C-0.67 2.01 -0.34 1.02 0 0 Z " fill="#9D5361" transform="translate(206,464)"/>
<path d="M0 0 C0.66 0.33 1.32 0.66 2 1 C-6.91 9.91 -15.82 18.82 -25 28 C-25 25 -25 25 -23.71484375 23.45703125 C-23.12832031 22.91433594 -22.54179688 22.37164062 -21.9375 21.8125 C-19.3586778 19.35230362 -16.9770498 16.85610583 -14.6875 14.125 C-10.53814092 9.29510822 -5.78236412 5.18685901 -1 1 C-0.67 0.67 -0.34 0.34 0 0 Z " fill="#8CC6DB" transform="translate(107,137)"/>
<path d="M0 0 C7.26153846 -0.49230769 7.26153846 -0.49230769 11 2 C11.66 2.66 12.32 3.32 13 4 C12.67 5.32 12.34 6.64 12 8 C11.17242187 7.27876953 11.17242187 7.27876953 10.328125 6.54296875 C7.63856507 4.76045839 5.94178582 4.52248591 2.75 4.3125 C1.85796875 4.24675781 0.9659375 4.18101562 0.046875 4.11328125 C-0.62859375 4.07589844 -1.3040625 4.03851563 -2 4 C-1.34 2.68 -0.68 1.36 0 0 Z " fill="#B38C69" transform="translate(139,213)"/>
<path d="M0 0 C0.66 0.33 1.32 0.66 2 1 C-3.61 6.61 -9.22 12.22 -15 18 C-15.66 17.67 -16.32 17.34 -17 17 C-15.88200014 15.66079162 -14.75538103 14.32877444 -13.625 13 C-12.68527344 11.88625 -12.68527344 11.88625 -11.7265625 10.75 C-10.87191406 9.88375 -10.87191406 9.88375 -10 9 C-9.34 9 -8.68 9 -8 9 C-8 8.34 -8 7.68 -8 7 C-6.25 5.2734375 -6.25 5.2734375 -4 3.375 C-3.2575 2.74335937 -2.515 2.11171875 -1.75 1.4609375 C-0.88375 0.73777344 -0.88375 0.73777344 0 0 Z " fill="#936E3D" transform="translate(171,60)"/>
<path d="M0 0 C0.33 0 0.66 0 1 0 C1 2.97 1 5.94 1 9 C-2 9 -2 9 -4 8 C-2.68 5.36 -1.36 2.72 0 0 Z " fill="#A47D4D" transform="translate(395,251)"/>
</svg>
